<svg version="1.1" id="Layer_1" xmlns="http://www.w3.org/2000/svg" xmlns:xlink="http://www.w3.org/1999/xlink" x="0px" y="0px"
	 width="100%" viewBox="0 0 400 288" enable-background="new 0 0 400 288" xml:space="preserve">
<path fill="#000000" opacity="1.000000" stroke="none" 
	d="
M175.024857,157.026520 
	C171.317215,155.406921 167.327576,155.219574 163.503510,154.531555 
	C161.997513,156.335526 163.056702,158.017227 163.580872,159.396515 
	C170.444611,177.457443 172.548630,196.511826 175.112152,215.425507 
	C177.307404,231.621994 178.733078,247.923264 180.463058,264.182037 
	C181.047745,269.677094 180.266815,270.397858 174.844498,269.019684 
	C145.390137,261.533173 122.002388,245.116211 104.254723,220.599274 
	C95.993767,209.187439 89.278755,196.959564 86.346489,182.984299 
	C85.574272,179.303894 85.013596,175.579208 85.190666,171.585617 
	C87.514297,172.547638 87.099991,174.447510 87.482697,175.961899 
	C91.025589,189.981415 96.642174,202.873291 105.544975,214.544800 
	C107.860214,217.580063 108.918755,222.199356 111.531113,225.698669 
	C114.078873,229.111420 117.322334,230.672577 121.361031,230.589920 
	C133.339676,230.344849 145.318817,230.046692 157.290527,229.582596 
	C161.379654,229.424103 163.453110,225.570297 163.225082,219.375443 
	C157.058426,220.773468 156.595169,220.369858 156.677383,213.909012 
	C156.835999,201.445694 158.416885,189.009232 156.955536,176.505463 
	C156.510513,172.697830 155.848465,171.712158 151.449890,171.267166 
	C145.168091,170.631683 138.129593,172.368027 132.510925,167.609253 
	C129.602264,165.145737 128.218216,167.452820 127.536217,169.832458 
	C126.072029,174.941254 125.054169,180.178360 123.576324,185.282684 
	C122.418198,189.282715 120.705727,192.699875 116.553299,195.024460 
	C113.283936,196.854675 111.681290,200.824158 111.308388,204.822311 
	C111.140938,206.617676 110.906670,208.397186 108.565689,208.024811 
	C106.216286,207.651093 106.519127,205.582581 106.836578,204.028534 
	C107.519012,200.687653 109.112518,197.668137 111.785477,195.547974 
	C118.889450,189.913177 120.752945,181.820358 122.471573,173.618118 
	C122.972603,171.226944 122.098953,169.727615 119.577248,169.371155 
	C113.651260,168.533478 107.720009,167.730423 101.803024,166.833282 
	C99.930168,166.549316 98.700462,167.608398 97.255592,168.442749 
	C91.758156,171.617310 85.063431,170.019135 82.147591,164.646606 
	C86.524902,164.435822 90.373848,167.708786 95.236420,166.101929 
	C92.212929,162.637787 89.214165,159.565521 87.711540,155.450928 
	C83.855301,144.891571 87.075226,135.645950 92.413857,126.506714 
	C100.170845,113.227486 111.096428,103.207985 123.697998,94.783905 
	C128.476074,91.589790 130.511703,92.169106 134.222931,96.558357 
	C143.431580,107.449409 151.254364,119.130676 156.018875,132.684006 
	C156.975128,135.404221 158.804489,135.894257 161.559677,135.297745 
	C167.505630,134.010406 172.625549,131.862946 175.313599,125.819427 
	C176.482056,123.192429 178.432281,121.113052 181.468826,120.374245 
	C182.247803,120.184715 183.073547,119.759354 183.639984,119.201057 
	C185.709259,117.161545 183.893723,102.824905 181.222824,101.765915 
	C177.952133,100.469116 176.370956,98.044647 176.147507,94.969711 
	C175.655487,88.199074 174.329483,81.499344 175.299042,74.588104 
	C175.945526,69.979759 177.005783,66.759438 182.675262,67.721893 
	C183.017944,61.695877 182.504913,56.090431 183.466614,50.456165 
	C184.685974,43.312344 188.867645,38.049812 192.856918,32.546036 
	C193.656113,31.443426 194.736145,30.511692 196.223511,31.610674 
	C197.336380,32.432949 198.279373,33.474480 197.973450,34.953178 
	C197.704620,36.252617 197.211578,37.544888 195.417587,37.440105 
	C191.335464,37.201664 191.457062,41.239914 189.777756,43.320930 
	C188.305573,45.145294 186.027405,47.305733 189.690186,50.120827 
	C191.199402,51.280746 190.171249,54.601192 186.580338,53.811020 
	C185.116028,58.678020 187.232956,61.217278 191.837234,62.666409 
	C206.282303,67.212807 220.659927,71.944695 235.868286,73.383789 
	C240.580444,73.829689 245.176727,73.437767 249.753342,72.450523 
	C253.560028,71.629349 255.826416,69.719711 254.192856,65.016548 
	C251.665390,64.690590 248.978973,64.922333 246.811188,61.933128 
	C244.897903,59.294857 241.831528,63.190205 238.710632,63.083103 
	C241.409622,58.461441 243.933136,54.140285 247.239059,48.479336 
	C234.516525,48.956409 223.372269,47.093533 214.052902,39.230988 
	C219.473480,40.537067 224.858109,42.026665 230.324677,43.098076 
	C235.888336,44.188519 241.520905,44.075382 247.578781,43.168571 
	C246.700043,42.049156 246.134689,41.328957 244.973679,39.849972 
	C250.109390,39.718777 254.399963,40.843803 259.085632,41.510078 
	C257.521271,49.275719 258.318237,56.579075 258.439392,63.854252 
	C258.538544,69.808975 257.619141,75.581497 255.330551,80.907654 
	C251.159500,90.614807 248.364120,100.656746 246.419159,110.983780 
	C245.291092,116.973320 242.104279,121.733795 237.692764,125.769630 
	C233.552383,129.557434 234.589020,136.021942 240.199356,137.062439 
	C249.661407,138.817261 257.973572,143.942688 267.773193,144.917648 
	C277.151764,145.850754 285.375946,150.109741 288.919006,160.062119 
	C289.724243,162.323990 291.617523,163.265152 293.821411,163.878265 
	C299.310730,165.405396 303.948181,168.317947 306.902161,173.263687 
	C308.930939,176.660400 312.295349,176.941299 315.466034,177.596359 
	C319.424591,178.414215 320.667816,180.213226 319.499237,184.267654 
	C318.250824,188.599014 316.834503,192.846588 315.078156,196.976959 
	C312.174469,203.805283 308.367676,205.334595 301.501831,202.893051 
	C299.148102,202.056061 296.793457,201.288208 294.284546,199.733063 
	C293.033051,203.666855 291.491821,207.333466 295.035370,210.739471 
	C299.730927,215.252808 303.993073,212.984039 308.429230,208.472595 
	C304.849915,226.221268 261.939270,262.546448 244.538513,263.042694 
	C246.057892,255.637787 247.557465,248.388092 249.031357,241.133179 
	C251.645401,228.266113 253.828629,215.326706 255.472549,202.298813 
	C255.636948,200.996078 256.079315,199.249710 254.588074,198.712997 
	C249.962585,197.048233 247.283096,193.091095 243.753067,189.802628 
	C240.589050,191.214798 237.929092,193.895660 234.136887,193.430695 
	C233.274094,193.324905 232.354828,193.898804 232.240799,194.760437 
	C231.455109,200.697327 225.681427,201.288391 222.154846,204.266800 
	C220.337341,205.801834 218.339661,205.781158 216.950806,203.785980 
	C215.365097,201.508011 216.552994,199.646942 218.542908,198.294434 
	C220.127319,197.217529 222.044434,197.442947 223.854874,197.238190 
	C225.197372,197.086349 226.664093,196.577866 227.058655,195.199997 
	C227.496201,193.672089 226.213760,192.882462 225.011093,192.254700 
	C218.048798,198.931503 212.863297,198.933548 206.849518,192.250427 
	C205.420044,192.922226 204.179062,193.865402 204.742538,195.617172 
	C205.265549,197.243179 206.788345,197.604370 208.395782,197.683304 
	C209.711288,197.747910 211.165390,197.698334 212.295609,198.243500 
	C214.410599,199.263672 215.869568,201.129807 214.620010,203.499832 
	C213.356506,205.896255 211.243271,205.875763 209.134262,204.285751 
	C208.205673,203.585678 207.290482,202.849838 206.289856,202.266296 
	C199.712830,198.430695 198.476364,196.381439 199.657654,191.120056 
	C201.205078,184.227921 206.294327,179.184555 212.349121,178.745102 
	C218.523438,178.296982 223.945816,180.043472 227.876160,185.040009 
	C230.169693,187.955750 231.881393,188.183548 234.570969,185.282547 
	C239.548370,179.913879 244.876678,174.848129 250.839233,170.544540 
	C253.673050,168.499191 255.094604,166.253448 254.182724,162.512421 
	C253.322433,158.982925 253.289612,155.259552 252.727844,151.647125 
	C252.244904,148.541473 251.949326,145.044083 248.403061,143.816788 
	C244.096558,142.326385 240.378235,143.169052 236.915222,146.686386 
	C228.783295,154.945953 219.000183,159.427567 207.079071,159.539780 
	C196.545547,159.638916 186.144073,159.090012 175.404892,157.053207 
	C174.997910,157.001053 175.024857,157.026520 175.024857,157.026520 
M116.951927,147.129074 
	C115.473366,136.149582 114.086357,125.156197 112.425774,114.204300 
	C112.150185,112.386757 112.099617,108.888390 109.165466,109.710846 
	C106.521095,110.452072 103.718285,112.580421 105.160881,116.439651 
	C109.095123,126.964478 113.049873,137.481628 117.032089,148.709747 
	C116.873993,149.868668 117.924080,151.389999 115.549026,152.281540 
	C109.077721,144.107056 102.532082,135.838669 95.948410,127.522224 
	C91.443375,131.944595 91.300957,132.989914 95.174217,136.349197 
	C100.960510,141.367661 106.945374,146.156540 112.805260,151.091187 
	C114.576767,152.582962 116.223198,154.067993 116.349129,156.802719 
	C116.446381,158.914795 124.352661,165.249313 125.945908,164.368027 
	C130.368469,161.921768 133.335022,163.832748 136.219925,167.359085 
	C138.307831,164.507477 138.368790,161.792313 137.326584,159.361755 
	C134.687302,153.206543 128.271362,156.343735 123.623924,154.540237 
	C125.117371,149.568848 127.620590,145.434097 129.703354,141.110794 
	C133.749161,132.712723 137.811798,124.321411 141.715866,115.857368 
	C142.651489,113.828903 143.959015,111.045364 140.855042,109.833115 
	C137.573029,108.551331 137.102386,111.681602 136.391495,113.778946 
	C132.705246,124.654442 129.118607,135.563644 125.464012,146.449951 
	C124.907455,148.107803 124.689026,150.100433 122.390007,150.523590 
	C120.898911,149.317123 121.479156,147.689545 121.661194,146.325455 
	C122.408524,140.725525 123.222160,135.129364 124.218544,129.568909 
	C125.918526,120.081970 127.831123,110.633026 129.515076,101.143394 
	C129.838394,99.321335 130.676361,96.614655 127.944534,96.098061 
	C125.225243,95.583847 123.232620,97.338005 122.499512,100.109177 
	C122.290756,100.898293 122.361542,101.762840 122.316093,102.593460 
	C121.525108,117.051949 120.260620,131.487534 120.271797,145.985596 
	C120.272972,147.508591 120.712784,149.429672 118.346199,150.085388 
	C117.884079,149.365524 117.444313,148.680481 116.951927,147.129074 
M286.474884,165.550079 
	C281.658447,163.522720 276.703064,161.992020 271.409973,161.662949 
	C276.618408,163.098724 281.826874,164.534515 286.379791,166.517319 
	C281.976501,168.160507 277.522308,167.182861 273.087738,166.741470 
	C269.775055,166.411758 266.472321,165.912964 263.221130,167.104904 
	C251.458725,171.417221 243.450272,180.424240 235.444550,189.508255 
	C245.340363,185.101242 250.347763,173.209732 262.299377,171.991837 
	C258.305481,175.460800 254.003220,178.513382 249.906860,181.820969 
	C247.468216,183.790039 245.759323,186.227890 248.949005,189.969528 
	C253.525055,184.718002 258.265533,180.098206 264.460266,177.042892 
	C273.445129,172.611481 278.067749,171.454819 284.493134,174.088242 
	C281.070557,174.526611 278.487518,174.858459 275.904205,175.187988 
	C273.796783,175.456802 271.579529,174.929398 269.638458,176.339172 
	C265.601562,179.271194 261.512970,182.132462 257.427582,184.997040 
	C255.741226,186.179474 254.496826,187.713455 253.686188,189.579514 
	C253.134842,190.848709 252.840164,192.287811 254.153152,193.206863 
	C255.494598,194.145813 257.035706,193.465454 257.631256,192.299927 
	C261.499146,184.730194 269.567963,183.800522 276.077393,180.436096 
	C277.937012,179.474930 279.991699,178.938553 282.716034,179.785233 
	C280.901367,181.838882 278.689117,182.131760 276.907379,183.138901 
	C271.458160,186.219131 264.944550,187.628265 260.982605,193.046753 
	C260.054840,194.315582 258.654114,195.963058 260.625397,197.362640 
	C262.164398,198.455276 263.774811,197.951187 265.018494,196.428604 
	C266.826782,194.214737 268.776917,192.112671 271.776764,191.612640 
	C280.150391,190.216949 288.406036,186.240372 297.161133,190.583817 
	C297.378113,192.117935 295.247681,194.153091 297.866608,195.663559 
	C300.165100,196.989227 302.301453,196.769409 304.497925,195.613571 
	C308.373230,193.574249 309.218719,190.224701 308.317047,186.284988 
	C305.697144,174.837555 298.596008,168.046112 286.474884,165.550079 
M214.333801,73.334602 
	C213.051666,72.979523 211.764618,72.641235 210.488190,72.266685 
	C200.504364,69.337013 191.767838,73.846352 188.582779,83.732285 
	C187.875641,85.927155 187.171021,87.328842 184.520065,87.943237 
	C181.287827,88.692360 181.240509,92.601662 179.522842,94.941765 
	C179.016571,95.631508 179.942017,96.848991 180.906219,97.308319 
	C182.011459,97.834839 182.778687,97.260422 183.359985,96.297874 
	C183.830246,95.519196 183.553543,94.189079 185.283951,94.055305 
	C187.272629,95.965721 187.288605,98.605171 187.327072,101.239273 
	C187.380798,104.917694 187.321060,108.833694 189.308990,111.912308 
	C194.360977,119.736107 199.084152,127.828461 205.217468,134.891602 
	C210.940689,141.482452 216.847534,140.436523 220.781479,132.350189 
	C210.376251,135.241318 206.811295,126.369446 201.226608,120.989372 
	C199.897339,120.537354 199.371094,123.187729 197.820511,121.890648 
	C196.736893,115.796257 199.866989,115.392349 208.474701,115.534164 
	C208.273499,118.391853 204.599060,117.902672 203.889587,120.220612 
	C209.681442,126.008621 220.107834,128.178009 225.874924,124.110916 
	C219.383896,126.800858 215.501892,123.883865 212.027710,119.916206 
	C210.746017,118.452492 210.039093,116.913742 211.942474,115.217484 
	C213.600204,116.347054 214.277817,118.056465 215.995667,118.955879 
	C223.548325,122.910255 224.321640,120.581841 223.672073,114.485092 
	C223.211853,110.165550 224.714508,106.359474 228.177048,103.369507 
	C232.090912,99.989792 236.934052,98.459885 240.707108,94.035126 
	C244.945160,89.065048 245.523666,84.199677 247.145386,78.509232 
	C235.911911,77.600540 225.263550,77.078697 214.333801,73.334602 
M275.888275,233.048172 
	C276.616669,233.170639 277.397491,232.971970 277.460144,232.246719 
	C278.435181,220.964386 276.166351,209.733261 276.868408,198.426056 
	C276.989227,196.480179 274.319458,195.598190 272.220245,195.435303 
	C271.158173,195.352875 269.758362,195.843140 269.976074,196.850052 
	C271.457428,203.701294 266.365570,202.171738 262.937134,202.317673 
	C260.442352,202.423843 259.441711,203.244751 259.123566,205.734283 
	C258.387695,211.492554 257.411835,217.222092 256.441559,222.947723 
	C255.924316,225.999802 257.505157,227.102448 260.166046,227.659317 
	C265.391571,228.752930 270.370880,230.618256 275.888275,233.048172 
M160.173691,139.703598 
	C157.632584,140.999878 158.432755,143.416992 158.303802,145.471085 
	C157.729446,154.619659 154.117218,158.591934 145.216034,159.347549 
	C141.379166,159.673264 140.774002,161.379120 142.026230,164.672272 
	C143.564102,168.716660 146.322815,169.052841 150.066208,168.114990 
	C157.175385,166.333862 158.706314,167.217758 160.797577,174.327789 
	C161.527344,176.808945 162.220306,178.773727 165.520004,178.684509 
	C164.593552,175.220871 163.733551,171.848526 162.784683,168.501389 
	C161.786301,164.979614 160.646622,161.497528 159.669327,157.970230 
	C158.028275,152.047333 159.343948,150.493912 165.291306,151.426880 
	C169.230255,152.044785 173.114944,153.042953 177.065567,153.539520 
	C179.508240,153.846542 181.952591,155.448624 185.697601,153.724289 
	C181.743011,150.092880 177.580948,147.443237 175.067062,143.689713 
	C171.226578,137.955444 166.936096,136.541351 160.173691,139.703598 
M212.492584,150.613800 
	C225.065170,147.172440 228.945450,145.136292 230.800446,140.933182 
	C227.614059,141.823257 225.220978,143.968491 222.540009,145.595993 
	C214.907944,150.229111 207.382645,151.937500 199.410233,145.972321 
	C194.217743,142.087158 188.858704,138.446350 184.144592,133.958359 
	C181.693634,131.624969 179.558990,129.195099 180.675323,125.273178 
	C179.466278,126.574013 178.610962,127.795532 177.747269,129.011093 
	C173.447678,135.062393 173.434723,135.611084 178.360687,140.844666 
	C182.466766,145.207169 186.667328,149.481003 190.844391,153.776291 
	C192.620209,155.602386 194.613678,156.782745 197.699844,155.842300 
	C194.364288,149.432190 188.834442,144.954163 185.711014,138.530930 
	C188.331238,138.483780 189.607239,139.975418 190.865067,141.176666 
	C194.954987,145.082520 198.919128,149.122284 202.867737,153.172852 
	C204.569824,154.918884 206.401611,156.152878 208.968063,156.007172 
	C216.174683,155.598022 222.510818,152.863419 228.463501,149.043930 
	C222.100800,150.337357 216.154709,153.776077 208.916779,152.819611 
	C209.791748,150.994827 210.784225,150.855392 212.492584,150.613800 
M282.143433,216.806198 
	C282.293060,223.709549 281.762085,230.639328 282.662354,238.085236 
	C290.112457,233.288345 292.662811,226.436356 293.995117,218.722794 
	C295.018372,212.798752 288.751251,211.372528 288.029724,206.518494 
	C283.880829,209.016602 281.739929,211.717697 282.143433,216.806198 
M131.691803,234.988953 
	C130.383423,236.776688 127.301025,238.249649 128.767014,240.726883 
	C130.743103,244.066132 133.693222,246.813553 138.018890,247.636169 
	C139.921875,243.235886 141.678101,239.174942 143.531418,234.889496 
	C139.536957,233.134613 135.953003,232.578201 131.691803,234.988953 
M238.541794,117.992798 
	C239.523087,116.033920 240.691162,112.627106 237.889038,112.900230 
	C233.551620,113.323006 231.520584,109.906448 228.298157,108.906960 
	C226.682693,111.636902 227.058685,120.320877 229.026413,122.061241 
	C230.497681,123.362511 232.521301,124.315605 234.422440,122.594696 
	C235.768127,121.376587 236.912506,119.936073 238.541794,117.992798 
M150.837524,132.238556 
	C151.831787,130.347824 152.428070,128.300140 150.205124,127.033958 
	C148.027252,125.793449 146.849121,127.953079 145.812134,129.236725 
	C140.437073,135.890335 135.208221,142.662033 129.928406,149.392593 
	C137.234314,144.321854 144.201248,139.017197 150.837524,132.238556 
M139.039093,150.933197 
	C138.573029,151.353180 138.106949,151.773148 137.457230,152.358612 
	C146.605637,152.441589 154.834122,147.571869 153.656815,142.244446 
	C148.836380,145.081192 144.178085,147.822525 139.039093,150.933197 
M215.383942,189.676865 
	C212.135986,190.007874 212.341110,183.403915 206.999863,186.156296 
	C210.368011,188.642914 211.544296,193.139160 216.102859,192.705322 
	C219.511002,192.380936 221.157608,189.520325 222.312775,186.190994 
	C218.376160,184.270691 217.940231,188.280182 215.383942,189.676865 
M313.267761,188.933319 
	C313.375641,189.058136 313.461639,189.237885 313.597656,189.292099 
	C313.730469,189.345047 313.993652,189.331833 314.064178,189.241699 
	C315.665100,187.195724 316.524750,184.798126 315.604675,182.379883 
	C315.124115,181.116898 313.472717,181.044846 312.177307,182.219025 
	C312.126923,184.321320 312.114594,186.438187 313.267761,188.933319 
M238.035461,106.937164 
	C236.398911,103.507431 234.407715,105.550392 232.132614,106.303291 
	C234.937088,108.500626 234.937088,108.500626 238.035461,106.937164 
z"/>
<path fill="#000000" opacity="1.000000" stroke="none" 
	d="
M204.997742,211.046829 
	C202.881470,208.080170 204.464615,207.077576 206.874023,207.022034 
	C212.861679,206.884033 218.862808,206.766617 224.841751,207.026566 
	C228.427521,207.182465 229.100159,209.118774 226.707077,211.863586 
	C225.696533,213.022659 224.905777,214.188797 224.344101,215.598663 
	C217.379456,233.080551 208.599335,249.723083 200.654099,266.751892 
	C200.232773,267.654877 199.779846,268.554321 199.237350,269.387512 
	C197.488327,272.073730 194.845444,271.604980 192.528229,270.773193 
	C189.538162,269.699951 191.273453,267.449799 191.932709,265.763580 
	C193.257828,262.374268 194.810562,259.073914 196.420639,255.390854 
	C194.549393,255.946838 193.595779,258.266327 191.332642,257.055969 
	C191.117325,255.076904 192.832962,253.951752 194.095367,253.621719 
	C198.178467,252.554306 199.127960,249.220352 200.440750,246.019302 
	C204.165039,236.938110 207.939163,227.877258 211.633926,218.784103 
	C212.363998,216.987305 212.827362,215.082123 213.403641,213.258911 
	C210.623077,211.579651 207.640991,212.869034 204.997742,211.046829 
z"/>
<path fill="#000000" opacity="1.000000" stroke="none" 
	d="
M140.874207,218.755859 
	C140.561478,216.370743 141.563126,214.784729 142.754501,213.408936 
	C144.571594,211.310501 145.843796,207.336121 149.626282,209.565765 
	C153.115372,211.622467 154.099289,215.273758 152.813278,219.181213 
	C152.254028,220.880386 151.029770,222.296524 151.445969,224.331558 
	C151.834167,226.229767 150.521378,227.025665 148.836868,227.204773 
	C147.054382,227.394257 145.029343,227.074799 144.991028,225.045898 
	C144.933197,221.982285 142.431900,221.002686 140.874207,218.755859 
z"/>
<path fill="#000000" opacity="1.000000" stroke="none" 
	d="
M197.259521,174.276276 
	C197.963364,173.537140 198.423157,173.057281 198.894867,172.589432 
	C205.293976,166.242813 206.966507,166.499329 211.787079,174.961212 
	C207.854019,176.166748 203.436966,174.404816 199.929932,177.288223 
	C196.919525,179.763306 194.552216,183.095306 189.921417,185.274734 
	C191.200653,180.167038 194.838287,177.814514 197.259521,174.276276 
z"/>
<path fill="#000000" opacity="1.000000" stroke="none" 
	d="
M235.895218,211.973358 
	C238.257935,208.109741 240.797699,204.918976 244.707718,202.938171 
	C246.582306,204.049896 244.848846,207.304016 248.691269,207.067078 
	C244.176453,211.692032 240.824783,216.074524 235.435974,217.864883 
	C233.380615,215.285461 235.122437,213.876114 235.895218,211.973358 
z"/>
<path fill="#000000" opacity="1.000000" stroke="none" 
	d="
M236.556488,266.735291 
	C231.593597,268.786438 226.874634,270.285919 221.619827,269.715057 
	C227.639984,266.333740 233.221954,262.474213 239.350388,258.026123 
	C239.530121,261.811035 238.229462,264.163879 236.556488,266.735291 
z"/>
<path fill="#000000" opacity="1.000000" stroke="none" 
	d="
M123.637344,200.662903 
	C123.318451,196.909027 125.740326,195.707489 128.334518,194.964630 
	C130.175049,194.437592 131.442169,195.739655 132.266235,197.289124 
	C133.407684,199.435379 134.318542,201.976944 131.815414,203.464554 
	C128.588638,205.382233 125.830978,203.843384 123.637344,200.662903 
z"/>
<path fill="#000000" opacity="1.000000" stroke="none" 
	d="
M188.901184,236.985016 
	C190.666351,233.607529 192.669434,231.006851 195.840073,229.721252 
	C198.280167,232.709824 192.475601,235.388046 196.720734,237.730133 
	C195.114563,239.853836 193.679291,242.356567 190.464584,241.652939 
	C188.082169,241.131500 188.018890,239.287277 188.901184,236.985016 
z"/>
<path fill="#000000" opacity="1.000000" stroke="none" 
	d="
M124.579926,215.289612 
	C121.524231,212.776779 122.788689,210.661728 124.704430,208.775421 
	C126.350281,207.154861 128.324753,207.046936 130.011673,208.716843 
	C131.894363,210.580460 131.990982,213.086258 130.880508,215.185471 
	C129.302490,218.168518 126.975601,216.526886 124.579926,215.289612 
z"/>
<path fill="#000000" opacity="1.000000" stroke="none" 
	d="
M246.067932,231.223541 
	C242.773788,230.425156 241.524857,228.474686 242.209641,225.631729 
	C242.719254,223.516098 244.371429,222.201340 246.594238,222.292145 
	C248.875824,222.385391 250.202255,223.866394 250.392960,226.135208 
	C250.630692,228.963303 249.766434,231.066727 246.067932,231.223541 
z"/>
<path fill="#000000" opacity="1.000000" stroke="none" 
	d="
M127.927391,184.075439 
	C129.418198,182.616821 130.801697,181.616455 132.581711,182.242035 
	C134.982864,183.085892 136.612183,184.775421 136.144165,187.454773 
	C135.599106,190.575180 133.041077,190.678696 130.730377,190.035507 
	C128.016312,189.280045 125.635666,187.910049 127.927391,184.075439 
z"/>
<path fill="#000000" opacity="1.000000" stroke="none" 
	d="
M183.484558,167.403564 
	C186.621216,166.513855 187.951355,168.441620 189.868607,170.367691 
	C186.529572,172.535492 183.534760,174.479813 180.272919,176.597504 
	C179.145905,172.580261 180.375183,169.822586 183.484558,167.403564 
z"/>
<path fill="#000000" opacity="1.000000" stroke="none" 
	d="
M174.983124,156.989838 
	C175.861115,158.834229 177.672821,160.635391 175.771286,162.784653 
	C174.572922,164.139130 172.980377,164.412552 171.288956,163.542007 
	C169.255157,162.495255 167.414062,160.986847 168.196289,158.585861 
	C169.192368,155.528503 172.005814,156.979462 174.589691,156.977249 
	C175.024857,157.026520 174.997910,157.001053 174.983124,156.989838 
z"/>
<path fill="#000000" opacity="1.000000" stroke="none" 
	d="
M235.694000,250.760223 
	C237.247238,249.340836 238.349640,247.798050 240.464584,247.809631 
	C238.893372,257.303589 237.839005,258.304596 231.472382,256.410431 
	C231.605347,253.730560 234.082428,252.769257 235.694000,250.760223 
z"/>
<path fill="#000000" opacity="1.000000" stroke="none" 
	d="
M117.369339,207.682159 
	C119.090813,205.938934 120.085167,206.514801 120.009621,208.342270 
	C119.888359,211.275833 119.462349,214.205383 119.012161,217.112961 
	C118.799568,218.486038 118.060982,219.604080 116.338890,219.310623 
	C114.248940,218.954483 114.261421,217.527496 114.719734,215.964615 
	C115.502380,213.295807 116.344383,210.644394 117.369339,207.682159 
z"/>
<path fill="#000000" opacity="1.000000" stroke="none" 
	d="
M189.698517,215.028870 
	C185.775955,215.122406 185.234146,213.381790 187.073776,210.792908 
	C188.742126,208.445023 190.524490,205.966537 194.463867,206.220673 
	C194.118973,209.864105 192.916107,212.780731 189.698517,215.028870 
z"/>
<path fill="#000000" opacity="1.000000" stroke="none" 
	d="
M187.017517,188.465332 
	C189.714844,189.064194 191.748230,189.959824 191.916809,193.241180 
	C188.951004,193.453964 186.312286,198.069077 183.437576,194.401535 
	C181.506531,191.937897 183.815735,189.536758 187.017517,188.465332 
z"/>
<path fill="#000000" opacity="1.000000" stroke="none" 
	d="
M243.717636,165.580795 
	C241.729416,163.891830 240.908524,162.009140 241.958847,159.763153 
	C242.438721,158.737015 243.579163,158.631180 244.555740,158.830444 
	C246.999771,159.329071 247.909561,161.246933 248.501938,163.397552 
	C248.838760,164.620468 249.528519,165.840500 248.619064,167.091049 
	C246.728195,167.527283 245.841385,165.134644 243.717636,165.580795 
z"/>
<path fill="#000000" opacity="1.000000" stroke="none" 
	d="
M200.119293,221.016556 
	C199.633224,221.624329 199.178024,221.943527 198.996887,222.377197 
	C196.342224,228.732559 196.350937,228.736191 188.997803,226.312759 
	C192.206528,222.837463 196.824753,221.876984 200.074707,218.975159 
	C200.562943,218.539246 200.510056,220.083267 200.119293,221.016556 
z"/>
<path fill="#000000" opacity="1.000000" stroke="none" 
	d="
M151.657715,184.791473 
	C150.858383,192.246216 150.763824,192.576782 148.195007,196.179337 
	C146.862305,189.938141 148.845230,184.637405 150.010361,178.697021 
	C152.368378,180.570450 151.880249,182.531372 151.657715,184.791473 
z"/>
<path fill="#000000" opacity="1.000000" stroke="none" 
	d="
M184.366455,219.730469 
	C188.198334,219.460999 191.613724,219.206772 195.275406,218.934204 
	C192.034119,223.854599 185.844238,224.713287 180.070526,221.347000 
	C180.877838,219.621292 182.556992,220.023438 184.366455,219.730469 
z"/>
<path fill="#000000" opacity="1.000000" stroke="none" 
	d="
M197.819153,40.866173 
	C199.017227,37.931770 198.871979,34.628887 202.762543,32.655781 
	C202.731735,38.097305 201.104462,42.071953 198.139359,46.111103 
	C196.347992,44.224892 197.434982,42.701237 197.819153,40.866173 
z"/>
<path fill="#000000" opacity="1.000000" stroke="none" 
	d="
M228.334534,163.670883 
	C229.061508,161.827271 229.642670,160.338623 230.349838,158.527206 
	C231.789536,162.813446 230.541550,168.332626 227.371277,172.123871 
	C226.130844,169.134628 227.745056,166.626099 228.334534,163.670883 
z"/>
<path fill="#000000" opacity="1.000000" stroke="none" 
	d="
M194.766312,94.670563 
	C195.800751,91.733711 197.582001,93.763115 198.942230,93.862213 
	C201.397827,94.041122 203.784424,95.106941 206.684952,94.329239 
	C205.323181,91.055946 201.271408,90.760147 199.563370,87.942970 
	C203.627823,86.874817 203.627823,86.874817 221.121323,99.174751 
	C220.118164,102.695908 214.190811,106.147591 208.774368,106.494278 
	C203.920593,106.804955 200.492355,104.722229 198.147690,100.575356 
	C197.083069,98.692467 195.935776,96.856308 194.766312,94.670563 
M205.364059,98.325073 
	C203.136444,99.182999 204.358322,100.327019 205.266708,101.152931 
	C207.077805,102.799614 209.079483,103.211754 211.334396,101.724030 
	C210.112106,99.217468 208.237564,98.448822 205.364059,98.325073 
z"/>
<path fill="#000000" opacity="1.000000" stroke="none" 
	d="
M214.852264,90.271698 
	C209.895645,85.730453 204.992462,81.910240 196.738647,83.371239 
	C204.271530,76.996651 218.742584,83.626770 220.730453,92.773911 
	C218.191849,93.589470 216.824966,91.617142 214.852264,90.271698 
z"/>
<path fill="#000000" opacity="1.000000" stroke="none" 
	d="
M272.009827,206.375015 
	C274.323151,213.623444 272.510071,220.511307 268.102020,221.104492 
	C271.049286,216.463348 268.577820,210.788315 272.009827,206.375015 
z"/>
</svg>